<?xml version="1.0" encoding="utf-8"?>
<!-- Generator: Adobe Illustrator 25.0.1, SVG Export Plug-In . SVG Version: 6.00 Build 0)  -->
<svg version="1.1" id="Layer_1" xmlns="http://www.w3.org/2000/svg" xmlns:xlink="http://www.w3.org/1999/xlink" x="0px" y="0px"
	 viewBox="0 0 257.1 61.1" style="enable-background:new 0 0 257.1 61.1;" xml:space="preserve">
<style type="text/css">
	.st0{fill:#FFCD00;}
</style>
<g>
	<path d="M74.5,15.7h6.9c0.3,0,0.7,0.2,0.8,0.5l4.3,12.5c0.7,2,1.6,5.1,1.6,5.1h0.1c0,0,0.9-3.1,1.6-5.1L94,16.3
		c0.1-0.3,0.4-0.5,0.8-0.5h6.9c0.4,0,0.8,0.3,0.8,0.7l2.4,29.3c0,0.5-0.3,0.9-0.8,0.9h-5.9c-0.4,0-0.8-0.3-0.8-0.8l-0.9-13.2
		c-0.2-2.3,0-5.2,0-5.2h-0.1c0,0-1,3.2-1.7,5.2l-3,8.4c-0.1,0.3-0.4,0.5-0.8,0.5h-5.3c-0.3,0-0.6-0.2-0.8-0.5l-3-8.4
		c-0.7-1.9-1.7-5.2-1.7-5.2h-0.1c0,0,0.2,2.8,0,5.2l-0.9,13.2c0,0.4-0.4,0.8-0.8,0.8h-6c-0.5,0-0.8-0.4-0.8-0.9l2.4-29.3
		C73.7,16,74.1,15.7,74.5,15.7z"/>
	<path d="M117.9,15.7h6.8c0.3,0,0.7,0.2,0.8,0.5l9.9,29.3c0.2,0.5-0.2,1.1-0.8,1.1h-6c-0.4,0-0.7-0.2-0.8-0.6l-1.6-5.3
		c-0.1-0.3-0.4-0.6-0.8-0.6H117c-0.4,0-0.7,0.2-0.8,0.6l-1.5,5.3c-0.1,0.3-0.4,0.6-0.8,0.6h-6c-0.6,0-0.9-0.5-0.8-1.1l9.9-29.3
		C117.2,15.9,117.5,15.7,117.9,15.7z M123.2,34.1c0.5,0,0.9-0.5,0.8-1l-1.4-5c-0.6-1.9-1.3-5.3-1.3-5.3h-0.1c0,0-0.7,3.4-1.3,5.3
		l-1.5,5c-0.2,0.5,0.2,1,0.8,1H123.2z"/>
	<path d="M138.8,16.5c0-0.4,0.4-0.8,0.8-0.8h9.9c3.2,0,4.7,0.2,6,0.7c3.5,1.3,5.7,4.5,5.7,9c0,3.3-1.6,6.9-4.6,8.4v0.1
		c0,0,0.4,0.6,1.2,1.9l5.3,9.6c0.3,0.5-0.1,1.2-0.7,1.2h-6.6c-0.3,0-0.6-0.2-0.7-0.4l-5-9.5c-0.1-0.3-0.4-0.4-0.7-0.4h-2.2
		c-0.4,0-0.8,0.4-0.8,0.8v8.8c0,0.4-0.4,0.8-0.8,0.8h-5.9c-0.4,0-0.8-0.4-0.8-0.8V16.5z M149.7,29.7c2.4,0,3.9-1.3,3.9-3.8
		c0-1.6-0.4-2.7-1.8-3.3c-0.7-0.3-1.6-0.4-2.8-0.4h-1.7c-0.4,0-0.8,0.4-0.8,0.8v5.9c0,0.4,0.4,0.8,0.8,0.8H149.7z"/>
	<path d="M168,15.7h5.9c0.4,0,0.8,0.4,0.8,0.8v10.3c0,0.4,0.4,0.8,0.8,0.8h1.8c0.3,0,0.6-0.2,0.7-0.4l5.9-11.1
		c0.1-0.3,0.4-0.4,0.7-0.4h6.3c0.6,0,1,0.7,0.7,1.2l-7.7,13.6v0.1l8.2,14.8c0.3,0.5-0.1,1.2-0.7,1.2h-6.6c-0.3,0-0.6-0.2-0.7-0.4
		l-6.1-11.7c-0.1-0.3-0.4-0.4-0.7-0.4h-1.8c-0.4,0-0.8,0.4-0.8,0.8v10.9c0,0.4-0.4,0.8-0.8,0.8H168c-0.4,0-0.8-0.4-0.8-0.8V16.5
		C167.2,16.1,167.6,15.7,168,15.7z"/>
	<path d="M197.2,15.7h17.7c0.4,0,0.8,0.4,0.8,0.8v4.9c0,0.4-0.4,0.8-0.8,0.8h-10.2c-0.4,0-0.8,0.4-0.8,0.8v4c0,0.4,0.4,0.8,0.8,0.8
		h7.8c0.4,0,0.8,0.4,0.8,0.8v4.9c0,0.4-0.4,0.8-0.8,0.8h-7.8c-0.4,0-0.8,0.4-0.8,0.8v4.2c0,0.4,0.4,0.8,0.8,0.8h10.8
		c0.4,0,0.8,0.4,0.8,0.8v4.9c0,0.4-0.4,0.8-0.8,0.8h-18.3c-0.4,0-0.8-0.4-0.8-0.8V16.5C196.4,16.1,196.7,15.7,197.2,15.7z"/>
	<path d="M227,22.2h-7.8c-0.4,0-0.8-0.4-0.8-0.8v-4.9c0-0.4,0.4-0.8,0.8-0.8h24.7c0.4,0,0.8,0.4,0.8,0.8v4.9c0,0.4-0.4,0.8-0.8,0.8
		h-7.8c-0.4,0-0.8,0.4-0.8,0.8v22.8c0,0.4-0.4,0.8-0.8,0.8h-5.9c-0.4,0-0.8-0.4-0.8-0.8V23C227.8,22.6,227.4,22.2,227,22.2z"/>
</g>
<path class="st0" d="M34.9,9.6c13.3,0,22.6,9.7,22.6,22c0,4.7-1.6,8.7-3.9,12.2c-0.2,0.4-0.2,0.9,0.2,1.1l3.3,2.7
	c0.4,0.3,0.4,0.8,0.1,1.2l-4.8,5.4c-0.3,0.3-0.8,0.4-1.2,0.1l-3.3-3.2c-0.3-0.3-0.7-0.3-1-0.1c-3.4,2.1-7.4,3.2-11.9,3.2
	c-13.4,0-22.6-9.9-22.6-22.6C12.3,19.2,21.5,9.6,34.9,9.6z M34.9,44.5c1.1,0,2.3-0.1,3.4-0.4c0.6-0.2,0.8-1,0.3-1.4l-2.8-2.4
	c-0.3-0.3-0.4-0.8-0.1-1.2l4.8-5.4c0.3-0.4,0.9-0.4,1.2,0l2.8,2.7c0.4,0.4,1.2,0.2,1.4-0.3c0.4-1.4,0.7-2.8,0.7-4.3
	c0-7.1-5-12.4-11.7-12.4c-6.8,0-11.7,5.3-11.7,12.4C23.3,39,28.1,44.5,34.9,44.5z"/>
</svg>
